<svg width="100" height="100" viewBox="0 0 100 100" fill="none" xmlns="http://www.w3.org/2000/svg">
<path d="M48.38 0.00499964L50 0C88.76 0 100 11.24 100 50L99.975 53.21C99.345 89.385 87.67 100 50 100L46.79 99.975C11.14 99.35 0.315 88 0 51.625V50C0 11.785 10.925 0.32 48.38 0.00499964ZM55 25H45C42.3478 25 39.8043 26.0536 37.9289 27.9289C36.0536 29.8043 35 32.3478 35 35V45C35 47.6522 36.0536 50.1957 37.9289 52.0711C39.8043 53.9464 42.3478 55 45 55H55V65H45C45 63.6739 44.4732 62.4021 43.5355 61.4645C42.5979 60.5268 41.3261 60 40 60C38.6739 60 37.4021 60.5268 36.4645 61.4645C35.5268 62.4021 35 63.6739 35 65C35 67.6522 36.0536 70.1957 37.9289 72.0711C39.8043 73.9464 42.3478 75 45 75H55C57.6522 75 60.1957 73.9464 62.0711 72.0711C63.9464 70.1957 65 67.6522 65 65V55C65 52.3478 63.9464 49.8043 62.0711 47.9289C60.1957 46.0536 57.6522 45 55 45H45V35H55L55.035 35.585C55.1855 36.8505 55.8136 38.0107 56.7908 38.8287C57.7681 39.6466 59.0208 40.0605 60.293 39.9859C61.5652 39.9112 62.7609 39.3535 63.6358 38.4268C64.5106 37.5002 64.9986 36.2744 65 35C65 32.3478 63.9464 29.8043 62.0711 27.9289C60.1957 26.0536 57.6522 25 55 25Z" fill="#2563EB"/>
</svg>
